#!OML:ASF F:\VICON\USERDATA\INSTALL\Justin_Nancy\Justin_Nancy.ASF
:FULLY-SPECIFIED
:DEGREES
1
root 10.6417 17.4574 -28.1039 1.42578 -0.976855 5.66579
lowerback 5.05334 -2.06531 -7.02707
upperback 1.35102 -3.08147 1.73997
thorax -0.96373 -1.54683 5.92531
lowerneck -14.6351 -2.93887 -8.63061
upperneck 20.8252 -2.86608 3.80222
head 9.14769 -1.62003 2.39106
rclavicle -2.49475e-014 1.98785e-014
rhumerus -36.1301 -18.3598 -73.5753
rradius 27.527
rwrist 8.91368
rhand -14.0356 11.6297
rfingers 7.12502
rthumb 12.0948 -18.0007
lclavicle -2.49475e-014 1.98785e-014
lhumerus -20.4208 2.11384 86.0134
lradius 30.4274
lwrist -7.47174
lhand -14.7648 27.5605
lfingers 7.12502
lthumb 11.3915 57.231
rfemur -25.2033 3.39214 15.4288
rtibia 9.96119
rfoot -3.76724 -5.36538
rtoes -5.46288
lfemur 6.58716 -0.351206 -29.6257
ltibia 18.319
lfoot -14.3792 -7.65164
ltoes -4.54547
2
root 10.6335 17.4453 -27.9669 1.47528 -1.02388 5.6736
lowerback 5.31133 -2.06823 -6.82112
upperback 1.0917 -3.10017 1.67069
thorax -1.39008 -1.53112 5.75759
lowerneck -14.4921 -2.757 -8.63764
upperneck 20.9619 -2.64555 3.88025
head 9.15379 -1.51302 2.4491
rclavicle 7.38485e-014 9.54166e-015
rhumerus -36.5352 -18.5595 -73.3623
rradius 27.1954
rwrist 9.5312
rhand -14.1364 11.3277
rfingers 7.12502
rthumb 11.9975 -18.3085
lclavicle 7.38485e-014 9.54166e-015
lhumerus -20.8044 2.07591 85.9476
lradius 30.5719
lwrist -7.74803
lhand -14.7276 26.7837
lfingers 7.12502
lthumb 11.4275 56.4522
rfemur -25.7063 3.46998 15.4897
rtibia 11.4066
rfoot -3.83552 -5.45329
rtoes -5.54897
lfemur 6.96093 -0.55919 -29.6834
ltibia 18.2913
lfoot -14.1128 -7.53295
ltoes -5.53237
3
root 10.6244 17.4371 -27.8311 1.42936 -0.921366 5.87991
lowerback 5.5234 -2.19786 -6.97828
upperback 0.852511 -3.30318 1.66838
thorax -1.71828 -1.61155 5.8729
lowerneck -13.7481 -2.5974 -8.98572
upperneck 20.8152 -2.45464 4.07145
head 8.95977 -1.43635 2.59881
rclavicle 2.17669e-014 3.18055e-015
rhumerus -36.9683 -18.1963 -73.1786
rradius 27.1108
rwrist 10.0695
rhand -14.0807 10.5937
rfingers 7.12502
rthumb 12.0513 -19.0393
lclavicle 2.17669e-014 3.18055e-015
lhumerus -21.3679 2.36318 85.9949
lradius 30.7601
lwrist -7.78745
lhand -14.976 26.4488
lfingers 7.12502
lthumb 11.1879 56.1305
rfemur -25.9565 2.82689 15.6113
rtibia 12.8349
rfoot -3.91573 -4.95411
rtoes -4.77655
lfemur 7.39591 -1.06972 -29.9836
ltibia 18.3264
lfoot -13.7107 -7.42891
ltoes -6.06299
4
root 10.6072 17.4366 -27.6949 1.43624 -0.752923 5.84404
lowerback 5.50984 -2.25781 -6.946
upperback 0.892355 -3.37892 1.67671
thorax -1.65909 -1.65322 5.86512
lowerneck -13.8688 -2.53675 -8.79346
upperneck 20.8011 -2.36583 3.90811
head 8.96619 -1.39531 2.52044
rclavicle 2.73329e-014 1.27222e-014
rhumerus -36.9579 -18.0343 -73.3096
rradius 27.0399
rwrist 9.94286
rhand -14.3614 9.88124
rfingers 7.12502
rthumb 11.7806 -19.7675
lclavicle 2.73329e-014 1.27222e-014
lhumerus -21.3225 2.43922 86.047
lradius 30.7949
lwrist -7.80465
lhand -15.3035 25.6544
lfingers 7.12502
lthumb 10.872 55.353
rfemur -26.0477 2.57035 15.8981
rtibia 14.1078
rfoot -4.01314 -4.74698
rtoes -4.04288
lfemur 7.84686 -1.49884 -29.9273
ltibia 18.419
lfoot -13.4843 -7.41555
ltoes -6.75181
5
root 10.5877 17.4315 -27.5555 1.4584 -0.707168 5.75939
lowerback 5.50715 -2.28358 -6.86393
upperback 0.908789 -3.4073 1.70086
thorax -1.63954 -1.66911 5.84475
lowerneck -14.0787 -2.43933 -8.74128
upperneck 20.8737 -2.22495 3.91573
head 9.01902 -1.32361 2.53136
rclavicle -1.88845e-014 7.95139e-016
rhumerus -36.9758 -18.404 -73.1306
rradius 26.8502
rwrist 10.6985
rhand -13.8979 9.78371
rfingers 7.12502
rthumb 12.2276 -19.8389
lclavicle -1.88845e-014 7.95139e-016
lhumerus -21.3348 2.64559 86.0397
lradius 30.9582
lwrist -8.334
lhand -15.7709 22.3439
lfingers 7.12502
lthumb 10.4212 52.0657
rfemur -26.0733 2.54537 16.2142
rtibia 15.2586
rfoot -3.91318 -4.53946
rtoes -5.00271
lfemur 8.33191 -1.75924 -29.8098
ltibia 18.5571
lfoot -13.3577 -7.31283
ltoes -8.49674
6
root 10.5671 17.4209 -27.4129 1.36256 -0.654082 5.73095
lowerback 5.73119 -2.27527 -6.92242
upperback 0.87431 -3.41497 1.75893
thorax -1.79247 -1.66534 5.95293
lowerneck -14.138 -2.46042 -8.86589
upperneck 20.9284 -2.23639 3.98871
head 9.05225 -1.33147 2.57633
rclavicle 1.44119e-014 -1.19271e-014
rhumerus -37.1536 -18.6668 -72.8416
rradius 26.6303
rwrist 11.1789
rhand -13.6058 10.1492
rfingers 7.12502
rthumb 12.5092 -19.4564
lclavicle 1.44119e-014 -1.19271e-014
lhumerus -21.5525 2.74339 86.1459
lradius 31.3245
lwrist -8.65739
lhand -15.0534 26.0352
lfingers 7.12502
lthumb 11.1132 55.7209
rfemur -25.8107 2.70278 16.414
rtibia 16.1171
rfoot -3.7849 -4.38013
rtoes -4.70721
lfemur 8.83671 -1.9655 -29.7509
ltibia 18.763
lfoot -13.0597 -7.28091
ltoes -9.52499
7
root 10.547 17.4194 -27.2664 1.35706 -0.668906 5.6866
lowerback 5.81582 -2.20136 -6.95232
upperback 0.852303 -3.32377 1.80666
thorax -1.87203 -1.61561 6.02062
lowerneck -14.4037 -2.61208 -8.75164
upperneck 21.1762 -2.40086 3.76348
head 9.19589 -1.42513 2.46059
rclavicle -9.25343e-014 2.78299e-014
rhumerus -37.2836 -18.8404 -72.647
rradius 26.3983
rwrist 11.295
rhand -13.6761 10.2871
rfingers 7.12502
rthumb 12.4414 -19.3227
lclavicle -9.25343e-014 2.78299e-014
lhumerus -21.6228 2.68797 86.3207
lradius 31.4412
lwrist -8.48979
lhand -14.9593 26.8413
lfingers 7.12502
lthumb 11.204 56.5221
rfemur -25.5529 2.97453 16.6116
rtibia 16.7181
rfoot -3.52824 -4.10964
rtoes -3.57306
lfemur 9.17509 -2.0201 -29.6367
ltibia 18.9761
lfoot -12.5743 -7.47801
ltoes -10.1215
8
root 10.5314 17.4335 -27.119 1.43829 -0.847084 5.58684
lowerback 5.43279 -2.15087 -6.9423
upperback 0.954397 -3.22487 1.90319
thorax -1.56154 -1.58247 6.08736
lowerneck -14.3019 -2.68484 -8.76236
upperneck 20.9829 -2.46959 3.60544
head 9.11419 -1.47249 2.39755
rclavicle -8.05078e-015 3.97569e-015
rhumerus -37.2416 -19.0615 -72.4271
rradius 26.0338
rwrist 11.2814
rhand -14.1073 10.9786
rfingers 7.12502
rthumb 12.0256 -18.6559
lclavicle -8.05078e-015 3.97569e-015
lhumerus -21.5171 2.95714 86.4716
lradius 31.279
lwrist -8.44236
lhand -15.1297 24.3911
lfingers 7.12502
lthumb 11.0397 54.0808
rfemur -25.4243 3.25204 16.8252
rtibia 17.0787
rfoot -2.54266 -3.44886
rtoes -2.66682
lfemur 9.41586 -2.27175 -29.5749
ltibia 19.1981
lfoot -12.0317 -7.45281
ltoes -11.1592
9
root 10.5181 17.4467 -26.9711 1.4837 -1.2367 5.41472
lowerback 4.82037 -1.97503 -7.11446
upperback 1.28703 -2.94432 2.25306
thorax -0.888219 -1.48156 6.50074
lowerneck -14.4261 -2.78803 -9.16552
upperneck 20.5825 -2.47783 3.52562
head 9.00703 -1.50752 2.43098
rclavicle -1.88845e-015 1.51076e-014
rhumerus -36.7999 -19.2825 -71.9451
rradius 25.8209
rwrist 11.2519
rhand -14.1167 11.8174
rfingers 7.12502
rthumb 12.0166 -17.8176
lclavicle -1.88845e-015 1.51076e-014
lhumerus -21.0687 3.24557 87.1145
lradius 31.0913
lwrist -8.38618
lhand -16.0434 20.538
lfingers 7.12502
lthumb 10.1583 50.2728
rfemur -25.2827 3.60625 17.0596
rtibia 17.1405
rfoot -0.971632 -2.72203
rtoes -1.03901
lfemur 9.62265 -2.58909 -29.5498
ltibia 19.5352
lfoot -11.343 -7.15749
ltoes -11.2572
10
root 10.4988 17.4618 -26.8212 1.48189 -1.25096 5.17655
lowerback 5.59835 -1.94101 -6.46106
upperback 0.797898 -2.92874 2.02099
thorax -1.88133 -1.41917 5.93604
lowerneck -14.5227 -2.75686 -8.73059
upperneck 21.0441 -2.51634 3.43326
head 9.1779 -1.50931 2.32606
rclavicle -8.54774e-015 -6.36111e-015
rhumerus -37.6607 -19.7336 -71.8456
rradius 25.6612
rwrist 11.683
rhand -13.7619 12.0108
rfingers 7.12502
rthumb 12.3586 -17.6039
lclavicle -8.54774e-015 -6.36111e-015
lhumerus -21.9974 3.10972 86.7875
lradius 31.1688
lwrist -8.2092
lhand -14.9351 26.4911
lfingers 7.12502
lthumb 11.2274 56.1707
rfemur -24.9404 4.03617 17.2777
rtibia 17.0013
rfoot 0.738574 -2.66545
rtoes 1.26005
lfemur 9.80703 -2.97996 -29.3358
ltibia 19.991
lfoot -10.4851 -7.21631
ltoes -12.1907
11
root 10.4796 17.4921 -26.6641 1.60367 -0.952534 4.78708
lowerback 5.53176 -2.04219 -6.07906
upperback 0.68124 -3.03501 2.19116
thorax -1.9601 -1.46841 5.90428
lowerneck -14.5022 -2.84234 -8.80497
upperneck 21.0396 -2.59658 3.33618
head 9.17896 -1.56332 2.29472
rclavicle -1.71949e-014 1.59028e-014
rhumerus -37.7426 -19.8195 -71.6888
rradius 25.5802
rwrist 11.9526
rhand -13.7855 10.8604
rfingers 7.12502
rthumb 12.3359 -18.7557
lclavicle -1.71949e-014 1.59028e-014
lhumerus -22.2488 3.57251 86.9371
lradius 31.1215
lwrist -8.37498
lhand -14.9044 26.2079
lfingers 7.12502
lthumb 11.257 55.8858
rfemur -24.5476 3.96481 17.7748
rtibia 16.796
rfoot 2.20828 -2.54172
rtoes 2.01937
lfemur 9.8244 -3.63538 -28.8974
ltibia 20.6291
lfoot -9.35374 -7.70444
ltoes -11.7508
12
root 10.4629 17.5245 -26.5008 1.56799 -0.598512 4.58063
lowerback 5.09308 -2.12039 -5.97497
upperback 0.915325 -3.10134 2.37058
thorax -1.45724 -1.52801 6.00735
lowerneck -14.5819 -2.88623 -8.91579
upperneck 20.891 -2.6141 3.31106
head 9.14557 -1.57924 2.30032
rclavicle -1.77912e-014 2.06736e-014
rhumerus -37.4277 -19.8702 -71.6876
rradius 25.7149
rwrist 11.8013
rhand -13.8407 9.09342
rfingers 7.12502
rthumb 12.2827 -20.5259
lclavicle -1.77912e-014 2.06736e-014
lhumerus -21.9815 4.04138 87.1934
lradius 31.0034
lwrist -8.55047
lhand -15.6566 21.3977
lfingers 7.12502
lthumb 10.5314 51.1138
rfemur -23.9226 3.55915 18.1856
rtibia 16.6004
rfoot 3.49414 -2.19317
rtoes 1.6659
lfemur 9.95153 -4.39501 -28.7008
ltibia 21.4755
lfoot -8.07362 -8.30252
ltoes -10.0482
13
root 10.4466 17.5443 -26.3339 1.39198 -0.584138 4.28574
lowerback 4.89808 -2.12038 -5.62943
upperback 1.108 -3.06907 2.445
thorax -1.16753 -1.52879 5.87171
lowerneck -14.8008 -2.88986 -8.90984
upperneck 20.9659 -2.60019 3.31559
head 9.21101 -1.57122 2.30182
rclavicle -2.73329e-014 1.74931e-014
rhumerus -37.2799 -20.4226 -71.4312
rradius 25.341
rwrist 12.1133
rhand -13.7943 9.09932
rfingers 7.12502
rthumb 12.3275 -20.5173
lclavicle -2.73329e-014 1.74931e-014
lhumerus -21.9465 4.18446 87.2859
lradius 30.9763
lwrist -8.19696
lhand -15.0908 25.3652
lfingers 7.12502
lthumb 11.0771 55.0529
rfemur -23.1828 3.31572 18.7462
rtibia 16.4627
rfoot 4.43211 -1.7932
rtoes 2.50438
lfemur 9.97644 -4.75059 -28.4092
ltibia 22.5295
lfoot -7.00802 -8.35798
ltoes -10.1314
14
root 10.4283 17.5669 -26.1729 1.46106 -0.872218 3.77181
lowerback 4.86824 -2.12915 -5.14697
upperback 0.83222 -3.05438 2.63651
thorax -1.4539 -1.50581 5.805
lowerneck -14.2629 -2.81013 -9.15988
upperneck 21.0836 -2.51232 3.43167
head 9.152 -1.54496 2.39894
rclavicle 1.05356e-014 2.14687e-014
rhumerus -37.7061 -20.7734 -70.7901
rradius 24.6905
rwrist 12.8689
rhand -13.9511 10.1454
rfingers 7.12502
rthumb 12.1763 -19.4802
lclavicle 1.05356e-014 2.14687e-014
lhumerus -22.7941 4.49816 87.3212
lradius 31.0433
lwrist -7.89035
lhand -15.2489 27.2911
lfingers 7.12502
lthumb 10.9247 56.9869
rfemur -22.7115 3.42032 19.5168
rtibia 16.4029
rfoot 4.64454 -1.40403
rtoes 3.44978
lfemur 9.48564 -4.75785 -27.8604
ltibia 23.7661
lfoot -6.23335 -7.7439
ltoes -14.5319
